<?xml version="1.0" encoding="UTF-8"?>
<!DOCTYPE svg PUBLIC "-//W3C//DTD SVG 1.1//EN" "http://www.w3.org/Graphics/SVG/1.1/DTD/svg11.dtd">
<svg xmlns="http://www.w3.org/2000/svg" version="1.1" width="100px" height="100px" style="shape-rendering:geometricPrecision; text-rendering:geometricPrecision; image-rendering:optimizeQuality; fill-rule:evenodd; clip-rule:evenodd" xmlns:xlink="http://www.w3.org/1999/xlink">
<g><path style="opacity:0.788" fill="#fefffe" d="M 32.5,28.5 C 43.8529,28.1678 55.1862,28.5012 66.5,29.5C 68.856,32.0217 71.0227,34.6884 73,37.5C 73.4998,48.495 73.6665,59.495 73.5,70.5C 57.5,70.5 41.5,70.5 25.5,70.5C 25.3335,59.495 25.5002,48.495 26,37.5C 28.41,34.6032 30.5767,31.6032 32.5,28.5 Z M 35.5,33.5 C 44.8393,33.3335 54.1726,33.5002 63.5,34C 64.5,35 65.5,36 66.5,37C 55.1667,37.6667 43.8333,37.6667 32.5,37C 33.7101,35.9609 34.7101,34.7942 35.5,33.5 Z M 29.5,41.5 C 42.8333,41.5 56.1667,41.5 69.5,41.5C 69.5,49.5 69.5,57.5 69.5,65.5C 56.1667,65.5 42.8333,65.5 29.5,65.5C 29.5,57.5 29.5,49.5 29.5,41.5 Z"/></g>
</svg>
