<?xml version="1.0" encoding="UTF-8"?>
<!DOCTYPE svg PUBLIC "-//W3C//DTD SVG 1.1//EN" "http://www.w3.org/Graphics/SVG/1.1/DTD/svg11.dtd">
<svg xmlns="http://www.w3.org/2000/svg" version="1.1" width="100px" height="100px" style="shape-rendering:geometricPrecision; text-rendering:geometricPrecision; image-rendering:optimizeQuality; fill-rule:evenodd; clip-rule:evenodd" xmlns:xlink="http://www.w3.org/1999/xlink">
<g><path style="opacity:0.776" fill="#fefffe" d="M 34.5,23.5 C 44.5056,23.3335 54.5056,23.5002 64.5,24C 70,25.5 73.5,29 75,34.5C 75.6667,44.5 75.6667,54.5 75,64.5C 73.5,70 70,73.5 64.5,75C 54.5,75.6667 44.5,75.6667 34.5,75C 29,73.5 25.5,70 24,64.5C 23.3333,54.5 23.3333,44.5 24,34.5C 25.6844,28.9845 29.1844,25.3178 34.5,23.5 Z M 34.5,29.5 C 44.5056,29.3335 54.5056,29.5002 64.5,30C 66.3333,31.1667 67.8333,32.6667 69,34.5C 69.6667,44.5 69.6667,54.5 69,64.5C 67.8333,66.3333 66.3333,67.8333 64.5,69C 54.5,69.6667 44.5,69.6667 34.5,69C 32.6667,67.8333 31.1667,66.3333 30,64.5C 29.3333,54.5 29.3333,44.5 30,34.5C 31.3657,32.6383 32.8657,30.9717 34.5,29.5 Z"/></g>
<g><path style="opacity:0.668" fill="#fefffe" d="M 40.5,38.5 C 49.22,37.83 51.8867,41.33 48.5,49C 52.4762,57.3664 49.8095,61.033 40.5,60C 37.7776,58.7275 36.4443,56.5608 36.5,53.5C 39.245,53.373 41.245,54.5397 42.5,57C 46,57.5 47.5,56 47,52.5C 45.103,50.9837 42.9363,50.317 40.5,50.5C 40.5,49.5 40.5,48.5 40.5,47.5C 45.6673,48.5081 47.334,46.6748 45.5,42C 44.5,41.3333 43.5,41.3333 42.5,42C 41.4911,44.1718 39.8244,45.3385 37.5,45.5C 37.1496,42.5466 38.1496,40.2133 40.5,38.5 Z"/></g>
<g><path style="opacity:0.743" fill="#fefffe" d="M 57.5,38.5 C 58.8333,38.5 60.1667,38.5 61.5,38.5C 61.5,45.8333 61.5,53.1667 61.5,60.5C 60.5,60.5 59.5,60.5 58.5,60.5C 58.5,54.5 58.5,48.5 58.5,42.5C 56.8333,42.5 55.1667,42.5 53.5,42.5C 53.5,41.5 53.5,40.5 53.5,39.5C 55.099,39.7678 56.4324,39.4345 57.5,38.5 Z"/></g>
</svg>
