<?xml version="1.0" standalone="no"?>
<!DOCTYPE svg PUBLIC "-//W3C//DTD SVG 20010904//EN"
 "http://www.w3.org/TR/2001/REC-SVG-20010904/DTD/svg10.dtd">
<svg version="1.0" xmlns="http://www.w3.org/2000/svg"
 width="1080.000000pt" height="1080.000000pt" viewBox="0 0 1080.000000 1080.000000"
 preserveAspectRatio="xMidYMid meet">

<g transform="translate(0.000000,1080.000000) scale(0.100000,-0.100000)"
fill="#000000" stroke="none">
<path d="M4321 8254 c-123 -33 -244 -122 -325 -241 -76 -112 -88 -160 -95
-365 l-6 -178 -43 -42 -42 -43 -758 -5 c-737 -6 -759 -6 -834 -27 -277 -78
-503 -268 -605 -508 -55 -129 -53 -61 -53 -1912 0 -1846 -2 -1766 53 -1903 39
-94 86 -166 166 -252 127 -136 301 -235 507 -290 l89 -23 3050 0 3050 0 100
28 c285 78 487 240 600 480 76 160 70 -9 73 1932 3 1901 5 1814 -54 1958 -105
259 -362 481 -608 526 -39 7 -304 11 -770 11 -681 0 -713 1 -754 20 -23 10
-53 31 -67 46 -24 26 -25 31 -25 178 0 241 -36 343 -165 471 -77 78 -142 117
-230 140 -86 22 -2171 22 -2254 -1z m2179 -399 c57 -29 70 -75 70 -247 0 -97
5 -172 14 -204 22 -83 74 -169 140 -232 69 -66 129 -104 225 -141 l66 -26 760
-5 760 -5 57 -28 c81 -40 170 -133 216 -226 l37 -75 3 -1705 c2 -1685 2 -1707
-18 -1772 -49 -162 -209 -286 -412 -319 -42 -6 -1064 -10 -3008 -10 -2914 0
-2946 0 -3029 20 -170 41 -322 150 -386 276 l-30 59 -3 1699 c-2 1477 0 1707
13 1751 32 113 148 225 291 282 l69 28 770 5 770 5 56 23 c131 53 244 152 306
269 50 93 63 158 63 321 0 162 5 179 72 236 l42 36 1028 0 c901 0 1033 -2
1058 -15z"/>
<path d="M5195 6435 c-303 -50 -550 -179 -766 -402 -185 -191 -303 -417 -356
-681 -24 -120 -24 -384 0 -504 53 -266 171 -490 360 -685 198 -204 436 -334
715 -390 120 -24 384 -24 504 0 279 56 517 186 715 390 189 195 307 419 360
685 24 120 24 384 0 504 -53 266 -171 490 -360 685 -194 200 -420 326 -692
385 -122 26 -359 32 -480 13z m435 -415 c47 -11 130 -43 185 -70 194 -95 339
-240 435 -435 71 -143 94 -247 94 -415 0 -168 -23 -272 -94 -415 -96 -195
-241 -340 -435 -435 -143 -71 -247 -94 -415 -94 -168 0 -272 23 -415 94 -194
95 -339 240 -435 435 -71 143 -94 247 -94 415 0 168 23 272 94 415 136 276
381 462 687 520 103 19 280 13 393 -15z"/>
</g>
</svg>
