<?xml version="1.0" encoding="UTF-8"?>
<!DOCTYPE svg PUBLIC "-//W3C//DTD SVG 1.1//EN" "http://www.w3.org/Graphics/SVG/1.1/DTD/svg11.dtd">
<svg xmlns="http://www.w3.org/2000/svg" version="1.1" width="100px" height="100px" style="shape-rendering:geometricPrecision; text-rendering:geometricPrecision; image-rendering:optimizeQuality; fill-rule:evenodd; clip-rule:evenodd" xmlns:xlink="http://www.w3.org/1999/xlink">
<g><path style="opacity:0.765" fill="#fefffe" d="M 24.5,31.5 C 35.1719,31.3335 45.8385,31.5002 56.5,32C 63.1263,36.9575 69.4596,42.2908 75.5,48C 69.5,54 63.5,60 57.5,66C 47.1667,66.6667 36.8333,66.6667 26.5,66C 25.6433,65.3109 24.9767,64.4776 24.5,63.5C 29.8333,58.8333 34.8333,53.8333 39.5,48.5C 34.8414,44.01 30.0081,39.6767 25,35.5C 24.51,34.2068 24.3433,32.8734 24.5,31.5 Z M 34.5,37.5 C 41.3209,36.3454 48.3209,36.1787 55.5,37C 59.9819,40.6475 64.3152,44.4808 68.5,48.5C 64.3487,53.1518 60.0153,57.6518 55.5,62C 48.1667,62.6667 40.8333,62.6667 33.5,62C 38.2135,57.6223 42.5468,52.9556 46.5,48C 42.9869,43.9898 38.9869,40.4898 34.5,37.5 Z"/></g>
</svg>
