<?xml version="1.0" standalone="no"?>
<!DOCTYPE svg PUBLIC "-//W3C//DTD SVG 20010904//EN"
 "http://www.w3.org/TR/2001/REC-SVG-20010904/DTD/svg10.dtd">
<svg version="1.0" xmlns="http://www.w3.org/2000/svg"
 width="1080.000000pt" height="1080.000000pt" viewBox="0 0 1080.000000 1080.000000"
 preserveAspectRatio="xMidYMid meet">

<g transform="translate(0.000000,1080.000000) scale(0.100000,-0.100000)"
fill="#000000" stroke="none">
<path d="M5195 9749 c-398 -18 -791 -91 -1175 -219 -659 -219 -1237 -582
-1730 -1087 -225 -229 -348 -380 -515 -633 -389 -586 -614 -1198 -700 -1905
-60 -486 -25 -1051 96 -1545 165 -673 496 -1309 955 -1830 100 -114 328 -340
439 -436 180 -156 462 -355 679 -479 843 -482 1841 -666 2821 -519 149 22 330
61 362 77 141 74 134 281 -12 348 -53 24 -79 24 -226 -6 -238 -49 -407 -66
-700 -72 -175 -4 -325 -1 -410 6 -942 82 -1782 469 -2468 1137 l-105 101 18
109 c57 358 277 745 612 1079 449 448 1064 763 1704 874 211 36 330 45 580 45
494 -1 896 -78 1337 -255 66 -27 134 -49 150 -49 128 0 226 120 194 239 -26
96 -62 122 -295 211 -298 113 -639 192 -1006 231 -177 20 -625 17 -800 -5
-557 -68 -1044 -230 -1497 -500 -609 -362 -1089 -914 -1279 -1470 l-37 -109
-28 34 c-53 65 -204 315 -285 474 -233 452 -377 951 -424 1470 -13 142 -13
528 0 670 86 942 487 1804 1149 2466 666 666 1532 1067 2480 1150 176 15 655
6 811 -15 325 -45 614 -116 896 -221 993 -371 1809 -1139 2238 -2109 198 -446
316 -948 332 -1406 7 -198 17 -251 56 -296 43 -49 84 -67 148 -67 92 0 163 54
185 140 16 64 3 344 -25 569 -86 679 -313 1288 -695 1864 -167 253 -290 404
-515 633 -493 505 -1071 868 -1730 1087 -395 132 -767 200 -1203 220 -111 5
-204 9 -207 8 -3 -1 -81 -5 -175 -9z"/>
<path d="M5275 8580 c-255 -22 -508 -113 -730 -264 -116 -78 -293 -255 -371
-371 -122 -180 -215 -406 -249 -610 -23 -132 -23 -358 0 -490 9 -55 34 -152
55 -216 78 -236 192 -421 365 -594 173 -173 358 -287 594 -365 158 -53 285
-72 461 -72 176 0 303 19 461 72 236 78 421 192 594 365 173 173 287 358 365
594 53 158 72 285 72 461 0 176 -19 303 -72 461 -78 236 -192 421 -365 594
-61 61 -150 137 -200 171 -291 198 -642 293 -980 264z m398 -420 c396 -107
700 -415 800 -809 32 -125 32 -397 0 -522 -101 -399 -413 -711 -812 -812 -125
-32 -397 -32 -522 0 -397 101 -702 404 -811 805 -20 72 -22 107 -22 268 0 161
2 196 22 268 108 397 414 704 799 801 114 29 123 30 303 26 129 -3 182 -8 243
-25z"/>
<path d="M8251 5279 c-79 -13 -227 -65 -300 -105 -267 -146 -444 -415 -515
-779 -14 -69 -36 -267 -36 -316 0 -12 -13 -19 -47 -24 -224 -33 -442 -240
-483 -460 -8 -43 -10 -331 -8 -990 l3 -930 26 -66 c69 -178 182 -286 359 -345
52 -18 120 -19 1145 -22 725 -2 1113 1 1160 8 214 32 424 235 465 450 14 76
13 1822 -1 1892 -6 29 -26 85 -45 123 -82 170 -229 292 -404 333 l-69 16 -6
85 c-47 639 -322 1021 -810 1122 -98 20 -333 25 -434 8z m386 -443 c178 -48
306 -186 372 -401 26 -84 51 -238 51 -317 l0 -58 -610 0 -610 0 0 58 c0 31 7
98 15 148 54 334 210 533 456 580 87 16 248 11 326 -10z m869 -1225 c18 -11
43 -35 58 -54 l26 -34 0 -883 0 -882 -39 -39 -39 -39 -1077 0 -1077 0 -29 29
-29 29 0 899 1 898 22 26 c12 15 38 36 57 48 35 21 36 21 1065 21 996 0 1031
-1 1061 -19z"/>
</g>
</svg>
