<?xml version="1.0" encoding="UTF-8"?>
<!DOCTYPE svg PUBLIC "-//W3C//DTD SVG 1.1//EN" "http://www.w3.org/Graphics/SVG/1.1/DTD/svg11.dtd">
<svg xmlns="http://www.w3.org/2000/svg" version="1.1" width="100px" height="100px" style="shape-rendering:geometricPrecision; text-rendering:geometricPrecision; image-rendering:optimizeQuality; fill-rule:evenodd; clip-rule:evenodd" xmlns:xlink="http://www.w3.org/1999/xlink">
<g><path style="opacity:0.745" fill="#fefffe" d="M 44.5,32.5 C 55.3306,30.7434 62.664,34.91 66.5,45C 68.2556,45.2022 69.9223,45.7022 71.5,46.5C 69.5179,49.8103 67.1846,52.8103 64.5,55.5C 61.8154,52.8103 59.4821,49.8103 57.5,46.5C 62.1232,44.6538 62.1232,42.1538 57.5,39C 50.6766,35.1236 44.5099,35.9569 39,41.5C 34.1534,50.6032 36.3201,57.4365 45.5,62C 49.5239,62.4973 53.5239,62.3307 57.5,61.5C 57.5,62.8333 57.5,64.1667 57.5,65.5C 42.9838,69.4248 34.6505,64.0915 32.5,49.5C 32.6612,41.0215 36.6612,35.3548 44.5,32.5 Z"/></g>
</svg>
