<?xml version="1.0" encoding="UTF-8"?>
<!DOCTYPE svg PUBLIC "-//W3C//DTD SVG 1.1//EN" "http://www.w3.org/Graphics/SVG/1.1/DTD/svg11.dtd">
<svg xmlns="http://www.w3.org/2000/svg" version="1.1" width="100px" height="100px" style="shape-rendering:geometricPrecision; text-rendering:geometricPrecision; image-rendering:optimizeQuality; fill-rule:evenodd; clip-rule:evenodd" xmlns:xlink="http://www.w3.org/1999/xlink">
<g><path style="opacity:0.76" fill="#fefffe" d="M 65.5,34.5 C 70.6306,34.606 71.7973,36.9394 69,41.5C 60.4238,52.3205 52.0905,63.3205 44,74.5C 42.181,77.2567 39.8476,78.2567 37,77.5C 36.7925,70.2374 37.6259,63.0708 39.5,56C 33.3213,52.4372 26.6546,49.9372 19.5,48.5C 18.6371,44.8384 19.9704,42.6718 23.5,42C 37.6936,39.8027 51.6936,37.3027 65.5,34.5 Z M 42.5,67.5 C 43.1192,62.1361 43.6192,56.8028 44,51.5C 38.9257,49.4748 33.759,47.6414 28.5,46C 39.8153,43.4991 51.1487,41.9991 62.5,41.5C 56.1612,50.4945 49.4945,59.1612 42.5,67.5 Z"/></g>
</svg>
