<?xml version="1.0" encoding="UTF-8"?>
<!DOCTYPE svg PUBLIC "-//W3C//DTD SVG 1.1//EN" "http://www.w3.org/Graphics/SVG/1.1/DTD/svg11.dtd">
<svg xmlns="http://www.w3.org/2000/svg" version="1.1" width="100px" height="100px" style="shape-rendering:geometricPrecision; text-rendering:geometricPrecision; image-rendering:optimizeQuality; fill-rule:evenodd; clip-rule:evenodd" xmlns:xlink="http://www.w3.org/1999/xlink">
<g><path style="opacity:0.782" fill="#fefffe" d="M 43.5,27.5 C 63.3125,26.4785 72.4792,35.8119 71,55.5C 66.2357,68.3024 57.0691,73.4691 43.5,71C 30.6976,66.2357 25.5309,57.0691 28,43.5C 30.685,35.6498 35.8517,30.3165 43.5,27.5 Z M 46.5,31.5 C 58.5353,31.6775 65.5353,37.6775 67.5,49.5C 64.8534,63.65 56.5201,69.15 42.5,66C 28.7454,56.1423 28.0787,45.4756 40.5,34C 42.6115,33.1553 44.6115,32.322 46.5,31.5 Z"/></g>
<g><path style="opacity:0.704" fill="#fefffe" d="M 46.5,35.5 C 48.5,35.5 50.5,35.5 52.5,35.5C 52.5,41.5 52.5,47.5 52.5,53.5C 50.5,53.5 48.5,53.5 46.5,53.5C 46.5,47.5 46.5,41.5 46.5,35.5 Z"/></g>
<g><path style="opacity:0.629" fill="#fefffe" d="M 46.5,58.5 C 48.5,58.5 50.5,58.5 52.5,58.5C 52.5,60.1667 52.5,61.8333 52.5,63.5C 50.5,63.5 48.5,63.5 46.5,63.5C 46.5,61.8333 46.5,60.1667 46.5,58.5 Z"/></g>
</svg>
