<?xml version="1.0" encoding="UTF-8"?>
<!DOCTYPE svg PUBLIC "-//W3C//DTD SVG 1.1//EN" "http://www.w3.org/Graphics/SVG/1.1/DTD/svg11.dtd">
<svg xmlns="http://www.w3.org/2000/svg" version="1.1" width="100px" height="100px" style="shape-rendering:geometricPrecision; text-rendering:geometricPrecision; image-rendering:optimizeQuality; fill-rule:evenodd; clip-rule:evenodd" xmlns:xlink="http://www.w3.org/1999/xlink">
<g><path style="opacity:0.781" fill="#fefffe" d="M 47.5,28.5 C 49.1667,28.5 50.8333,28.5 52.5,28.5C 53.4245,32.9413 54.7578,37.2746 56.5,41.5C 61.3829,42.1906 66.2162,42.8572 71,43.5C 71.6667,44.8333 71.6667,46.1667 71,47.5C 67.3716,50.0568 63.8716,52.7235 60.5,55.5C 62.6571,60.3009 63.9904,65.3009 64.5,70.5C 62.8008,70.6602 61.1341,70.4935 59.5,70C 56.4032,67.7039 53.2365,65.5373 50,63.5C 46.5102,65.651 43.0102,67.8176 39.5,70C 37.0752,70.9859 35.4085,70.3193 34.5,68C 35.5327,63.7354 36.866,59.5688 38.5,55.5C 35.4797,52.4838 32.1464,49.8171 28.5,47.5C 27.5481,45.9547 27.2148,44.288 27.5,42.5C 32.5111,42.6659 37.5111,42.4993 42.5,42C 44.2685,37.5267 45.9352,33.0267 47.5,28.5 Z M 57.5,62.5 C 54.9258,60.9616 52.4258,59.2949 50,57.5C 47.0294,58.9787 44.1961,60.6454 41.5,62.5C 41.8954,59.3138 42.8954,56.3138 44.5,53.5C 41.8534,50.8434 38.8534,48.6768 35.5,47C 39.211,46.8253 42.8776,46.3253 46.5,45.5C 49.3436,34.8548 51.3436,35.1881 52.5,46.5C 56.1817,46.3347 59.8484,46.5014 63.5,47C 61,48.8333 58.5,50.6667 56,52.5C 55.9525,55.8776 56.4525,59.2109 57.5,62.5 Z"/></g>
</svg>
