<?xml version="1.0" encoding="UTF-8"?>
<!DOCTYPE svg PUBLIC "-//W3C//DTD SVG 1.1//EN" "http://www.w3.org/Graphics/SVG/1.1/DTD/svg11.dtd">
<svg xmlns="http://www.w3.org/2000/svg" version="1.1" width="100px" height="100px" style="shape-rendering:geometricPrecision; text-rendering:geometricPrecision; image-rendering:optimizeQuality; fill-rule:evenodd; clip-rule:evenodd" xmlns:xlink="http://www.w3.org/1999/xlink">
<g><path style="opacity:0.771" fill="#fefffe" d="M 34.5,23.5 C 44.5056,23.3335 54.5056,23.5002 64.5,24C 68.0068,24.4116 70.3401,26.245 71.5,29.5C 69.1241,31.9539 66.4574,32.1206 63.5,30C 53.8333,29.3333 44.1667,29.3333 34.5,30C 32.6667,31.1667 31.1667,32.6667 30,34.5C 29.3333,44.5 29.3333,54.5 30,64.5C 31.1667,66.3333 32.6667,67.8333 34.5,69C 44.5,69.6667 54.5,69.6667 64.5,69C 66.3333,67.8333 67.8333,66.3333 69,64.5C 69.1694,58.1406 69.6694,51.8072 70.5,45.5C 71.8333,44.1667 73.1667,44.1667 74.5,45.5C 75.6639,51.8072 75.8306,58.1405 75,64.5C 73.5,70 70,73.5 64.5,75C 54.5,75.6667 44.5,75.6667 34.5,75C 29,73.5 25.5,70 24,64.5C 23.3333,54.5 23.3333,44.5 24,34.5C 25.6844,28.9845 29.1844,25.3178 34.5,23.5 Z"/></g>
<g><path style="opacity:0.73" fill="#fefffe" d="M 78.5,25.5 C 82.5816,26.0066 83.7482,28.0066 82,31.5C 71.5,42 61,52.5 50.5,63C 49.5,63.6667 48.5,63.6667 47.5,63C 43,58.5 38.5,54 34,49.5C 32.8333,45.3333 34.3333,43.8333 38.5,45C 42,48.5 45.5,52 49,55.5C 59.0355,45.6317 68.8688,35.6317 78.5,25.5 Z"/></g>
</svg>
