<?xml version="1.0" encoding="UTF-8"?>
<!DOCTYPE svg PUBLIC "-//W3C//DTD SVG 1.1//EN" "http://www.w3.org/Graphics/SVG/1.1/DTD/svg11.dtd">
<svg xmlns="http://www.w3.org/2000/svg" version="1.1" width="100px" height="100px" style="shape-rendering:geometricPrecision; text-rendering:geometricPrecision; image-rendering:optimizeQuality; fill-rule:evenodd; clip-rule:evenodd" xmlns:xlink="http://www.w3.org/1999/xlink">
<g><path style="opacity:0.777" fill="#fefffe" d="M 42.5,29.5 C 47.1667,29.5 51.8333,29.5 56.5,29.5C 56.5,30.5 56.5,31.5 56.5,32.5C 60.8333,32.5 65.1667,32.5 69.5,32.5C 69.5,33.8333 69.5,35.1667 69.5,36.5C 68.5,36.5 67.5,36.5 66.5,36.5C 66.5,48.8333 66.5,61.1667 66.5,73.5C 55.1667,73.5 43.8333,73.5 32.5,73.5C 32.5,61.1667 32.5,48.8333 32.5,36.5C 31.5,36.5 30.5,36.5 29.5,36.5C 29.5,35.1667 29.5,33.8333 29.5,32.5C 33.8333,32.5 38.1667,32.5 42.5,32.5C 42.5,31.5 42.5,30.5 42.5,29.5 Z M 37.5,38.5 C 45.5,38.5 53.5,38.5 61.5,38.5C 61.5,48.8333 61.5,59.1667 61.5,69.5C 53.5,69.5 45.5,69.5 37.5,69.5C 37.5,59.1667 37.5,48.8333 37.5,38.5 Z"/></g>
<g><path style="opacity:0.665" fill="#fefffe" d="M 42.5,42.5 C 44.1667,42.5 45.8333,42.5 47.5,42.5C 47.5,49.8333 47.5,57.1667 47.5,64.5C 45.8333,64.5 44.1667,64.5 42.5,64.5C 42.5,57.1667 42.5,49.8333 42.5,42.5 Z"/></g>
<g><path style="opacity:0.667" fill="#fefffe" d="M 51.5,42.5 C 53.1667,42.5 54.8333,42.5 56.5,42.5C 56.5,49.8333 56.5,57.1667 56.5,64.5C 54.8333,64.5 53.1667,64.5 51.5,64.5C 51.5,57.1667 51.5,49.8333 51.5,42.5 Z"/></g>
</svg>
